<svg height="512" viewBox="0 0 512 512" width="512" xmlns="http://www.w3.org/2000/svg"><g><g><g><g><g fill="#ffdaaa"><path d="m164.3 152-.83.54q-.78-.255-1.53-.54z"/><circle cx="208" cy="192" r="16"/><circle cx="304" cy="192" r="16"/><path d="m164.3 152-.83.54q-.78-.255-1.53-.54z"/></g><path d="m472 496h-432l2.75-73.63a80.021 80.021 0 0 1 60.44-56.31l96.81-22.06c0 30.93 25.07 48 56 48s56-17.07 56-48l96.81 22.06a80.021 80.021 0 0 1 60.44 56.31z" fill="#003f8a"/><path d="m152 168v64h-12a19.994 19.994 0 0 1 -20-20v-24a19.994 19.994 0 0 1 20-20z" fill="#ffdaaa"/><path d="m392 188v24a19.994 19.994 0 0 1 -20 20h-12v-64h12a19.994 19.994 0 0 1 20 20z" fill="#ffdaaa"/><path d="m360 136v22.55a86.889 86.889 0 0 1 -20.7-6.55 88.324 88.324 0 0 1 -36.23-30.74 135.471 135.471 0 0 1 -95.07 38.74 135.54 135.54 0 0 1 -44.53-7.46l.83-.54h-2.36q-5.07-1.815-9.94-4.02v-27.98a103.993 103.993 0 0 1 176.37-74.68c18.59 10 59.41 29.01 71.63 10.68 0 0 16 56-40 80z" fill="#2d2d30"/></g><path d="m164.3 152-.83.54q-.78-.255-1.53-.54z" fill="#ffdaaa"/></g><g fill="#ffdaaa"><path d="m312 311.66v32.34c0 30.93-25.07 48-56 48s-56-17.07-56-48v-32.34a104.131 104.131 0 0 0 112 0z"/><circle cx="208" cy="192" r="16"/><circle cx="304" cy="192" r="16"/><path d="m339.3 152a88.324 88.324 0 0 1 -36.23-30.74 135.471 135.471 0 0 1 -95.07 38.74 135.54 135.54 0 0 1 -44.53-7.46q-.78-.255-1.53-.54-5.07-1.815-9.94-4.02v76.02a103.674 103.674 0 0 0 30.46 73.54 104.754 104.754 0 0 0 17.54 14.12 104 104 0 0 0 160-87.66v-65.45a86.889 86.889 0 0 1 -20.7-6.55zm-131.3 56a16 16 0 1 1 16-16 16 16 0 0 1 -16 16zm96 0a16 16 0 1 1 16-16 16 16 0 0 1 -16 16z"/></g><path d="m320 240v60.14c-1.62 1.39-3.28 2.72-4.95 4-1.01.78-2.02 1.54-3.05 2.28-18.6 13.53-39.37 21.58-56 21.58s-37.4-8.05-56-21.58c-1.03-.74-2.04-1.5-3.05-2.28-1.67-1.28-3.33-2.61-4.95-4v-68.14l64-8z" fill="#ffda44"/></g><g><path d="m477.24 422.07a7.683 7.683 0 0 0 -.3-1.9 87.8 87.8 0 0 0 -66.41-61.92l-90.53-20.63v-21.76a112.136 112.136 0 0 0 46.85-75.86h5.15a28.031 28.031 0 0 0 28-28v-24a28.031 28.031 0 0 0 -28-28h-4v-18.89c28.42-14.02 37.96-36.18 40.88-52.72a84.2 84.2 0 0 0 -1.19-34.59 8.006 8.006 0 0 0 -14.35-2.24c-5.7 8.56-29.86 3.4-60.26-12.8a111.987 111.987 0 0 0 -189.08 81.24v40h-4a28.031 28.031 0 0 0 -28 28v24a28.031 28.031 0 0 0 28 28h5.15a112.136 112.136 0 0 0 46.85 75.86v21.76l-90.53 20.63a87.8 87.8 0 0 0 -66.41 61.92 7.683 7.683 0 0 0 -.3 1.9l-2.75 73.63a8 8 0 0 0 7.99 8.3h432a8 8 0 0 0 7.99-8.3zm-333.24-198.07h-4a12.01 12.01 0 0 1 -12-12v-24a12.01 12.01 0 0 1 12-12h4zm208 0a95.567 95.567 0 0 1 -24 63.42v-44.86l24-33.6zm20-48a12.01 12.01 0 0 1 12 12v24a12.01 12.01 0 0 1 -12 12h-4v-48zm-212-56a95.994 95.994 0 0 1 162.8-68.94 1.738 1.738 0 0 0 .15.13c.13.12.26.24.39.35.1.08.2.15.3.23s.22.15.33.23c.14.09.28.17.43.25l.18.12c.05.02.1.05.16.08.01 0 .02.01.03.02 35.79 19.22 56.88 21.64 69.29 17.47.94 15.94-2.86 43.99-37.21 58.71a7.983 7.983 0 0 0 -4.83 6.91c-.01.12-.02.25-.02.42v12.32a80.586 80.586 0 0 1 -42.3-31.52c-.02-.03-.04-.04-.05-.06a8.57 8.57 0 0 0 -.86-1.05 8 8 0 0 0 -11.31-.13 128.148 128.148 0 0 1 -137.48 27.15zm24 167.42a95.567 95.567 0 0 1 -24-63.42v-15.04l24 33.6zm7.01-63.36c-.17.02-.34.06-.5.09l-30.51-42.71v-21.63a144.25 144.25 0 0 0 141.98-26.7 96.7 96.7 0 0 0 50.02 31.85v16.48l-35.34 49.48-58.72-14.68a8.034 8.034 0 0 0 -2.93-.18zm64.99 95.94a95.477 95.477 0 0 1 -56.17-18.2 8.272 8.272 0 0 0 .17-1.66v-61.08l55.51-6.94 56.49 14.13v53.89a8.272 8.272 0 0 0 .17 1.66 95.477 95.477 0 0 1 -56.17 18.2zm48 5.18v18.82c0 29.52-25.86 40-48 40-35.43 0-48-21.55-48-40v-18.82a111.88 111.88 0 0 0 96 0zm112 162.82v-32a8 8 0 0 0 -16 0v32h-288v-32a8 8 0 0 0 -16 0v32h-47.7l2.41-64.34a71.856 71.856 0 0 1 54.13-49.77l.13-.03 87.82-20.01a50.557 50.557 0 0 0 18.6 31.99c11.38 9.13 27.22 14.16 44.61 14.16s33.23-5.03 44.61-14.16a50.557 50.557 0 0 0 18.6-31.99l87.82 20.01.13.03a71.856 71.856 0 0 1 54.13 49.77l2.41 64.34z"/><circle cx="208" cy="192" r="16"/><circle cx="304" cy="192" r="16"/></g></g></svg>